<svg width="36" height="37" viewBox="0 0 36 37" fill="none" xmlns="http://www.w3.org/2000/svg">
<g filter="url(#filter0_d_417_6307)">
<g clip-path="url(#clip0_417_6307)">
<path d="M11.366 30C11.141 29.925 10.8973 29.8688 10.6848 29.7625C9.95355 29.4 9.50355 28.8062 9.44105 27.9875C9.35355 26.7312 9.3098 25.475 9.25355 24.2188C9.1473 21.9312 9.0473 19.6438 8.94105 17.3625C8.8723 15.8625 8.80355 14.3688 8.74105 12.8688C8.7223 12.3063 9.02855 12 9.5973 12C15.5285 12 21.4535 12 27.3848 12C27.9535 12 28.2598 12.3063 28.2348 12.8688C28.1348 15.1188 28.0285 17.3625 27.9285 19.6125C27.841 21.5 27.7598 23.3875 27.6785 25.275C27.641 26.1562 27.616 27.0375 27.5473 27.9188C27.4598 28.9938 26.7598 29.75 25.7035 29.9625C25.6723 29.9688 25.6473 29.9875 25.6223 30C20.866 30 16.116 30 11.366 30ZM10.3035 13.5062C10.3035 13.7437 10.2973 13.9625 10.3035 14.1812C10.4035 16.4375 10.5098 18.6938 10.6098 20.9438C10.7098 23.1813 10.8035 25.425 10.9098 27.6625C10.9348 28.2313 11.2223 28.5 11.791 28.5C16.2598 28.5 20.7285 28.5 25.1973 28.5C25.7598 28.5 26.0473 28.2313 26.0723 27.6625C26.0973 27.1938 26.1098 26.725 26.1348 26.2563C26.216 24.3688 26.3035 22.4812 26.391 20.5938C26.491 18.3063 26.5973 16.0188 26.7035 13.7375C26.7098 13.6625 26.7035 13.5875 26.7035 13.5062C21.216 13.5062 15.766 13.5062 10.3035 13.5062Z" fill="#FF9626" stroke="#FF9626" stroke-width="0.2"/>
<path d="M21.8223 6C21.9161 6.03125 22.0098 6.0625 22.1098 6.0875C23.0723 6.36875 23.7286 7.21875 23.7473 8.21875C23.7536 8.46875 23.7473 8.71875 23.7473 9C23.8411 9 23.9223 9 24.0098 9C25.4161 9 26.8223 9 28.2286 9C28.5911 9 28.8661 9.20625 28.9661 9.5375C29.0598 9.84375 28.9536 10.1812 28.6723 10.3562C28.5536 10.4312 28.4036 10.4688 28.2598 10.4938C28.1223 10.5188 27.9786 10.5 27.8411 10.5C21.5348 10.5 15.2348 10.5 8.92856 10.5C8.82231 10.5 8.70981 10.5062 8.60356 10.4812C8.22856 10.4062 7.96606 10.05 8.00356 9.675C8.03481 9.2875 8.35356 9 8.76606 9C9.89731 8.99375 11.0286 9 12.1661 9C12.5161 9 12.8661 9 13.2473 9C13.2473 8.76875 13.2473 8.55 13.2473 8.3375C13.2536 7.1625 13.9411 6.3 15.0911 6.04375C15.1223 6.0375 15.1473 6.01875 15.1723 6.00625C17.3848 6 19.6036 6 21.8223 6ZM14.7411 8.9875C17.2536 8.9875 19.7411 8.9875 22.2411 8.9875C22.2411 8.71875 22.2536 8.45625 22.2411 8.2C22.2223 7.81875 21.9098 7.50625 21.5223 7.50625C19.5098 7.5 17.4911 7.5 15.4786 7.50625C15.0786 7.50625 14.7661 7.825 14.7536 8.21875C14.7348 8.46875 14.7411 8.7125 14.7411 8.9875Z" fill="#FF9626" stroke="#FF9626" stroke-width="0.2"/>
<path d="M21.866 20.6C21.9285 19.2375 21.9848 17.8687 22.0473 16.5062C22.066 16.0687 22.3973 15.7437 22.8098 15.7562C23.2348 15.7625 23.5598 16.1125 23.541 16.5625C23.4973 17.7062 23.4473 18.8562 23.3973 20C23.3285 21.5687 23.2598 23.1375 23.191 24.7C23.166 25.1937 22.841 25.5187 22.4035 25.5C21.966 25.475 21.6723 25.1187 21.6973 24.625C21.7535 23.2812 21.8098 21.9375 21.866 20.6Z" fill="#FF9626" stroke="#FF9626" stroke-width="0.2"/>
<path d="M17.7411 20.6C17.7411 19.25 17.7411 17.9 17.7411 16.5438C17.7411 15.9688 18.2536 15.6 18.7598 15.8C19.0661 15.9188 19.2286 16.1563 19.2411 16.4875C19.2473 16.7438 19.2411 17 19.2411 17.2625C19.2411 19.7063 19.2411 22.15 19.2411 24.6C19.2411 24.7 19.2473 24.8063 19.2223 24.9C19.1473 25.275 18.7911 25.5375 18.4161 25.4938C18.0286 25.4563 17.7473 25.1375 17.7411 24.725C17.7348 23.5 17.7411 22.275 17.7411 21.0438C17.7411 20.9 17.7411 20.75 17.7411 20.6Z" fill="#FF9626" stroke="#FF9626" stroke-width="0.2"/>
<path d="M13.6162 20.6313C13.56 19.3375 13.5037 18.0438 13.4475 16.7438C13.4412 16.6125 13.435 16.475 13.46 16.35C13.535 15.975 13.8662 15.725 14.2412 15.75C14.61 15.775 14.91 16.075 14.9287 16.4563C14.9787 17.475 15.0225 18.5 15.0662 19.5188C15.1412 21.1938 15.2162 22.875 15.2787 24.55C15.285 24.7125 15.2725 24.8813 15.2225 25.0313C15.11 25.35 14.76 25.5375 14.435 25.4938C14.0725 25.4375 13.81 25.15 13.7912 24.7688C13.735 23.3875 13.6725 22.0125 13.6162 20.6313Z" fill="#FF9626" stroke="#FF9626" stroke-width="0.2"/>
</g>
</g>
<defs>
<filter id="filter0_d_417_6307" x="-4" y="-2" width="44" height="44" filterUnits="userSpaceOnUse" color-interpolation-filters="sRGB">
<feFlood flood-opacity="0" result="BackgroundImageFix"/>
<feColorMatrix in="SourceAlpha" type="matrix" values="0 0 0 0 0 0 0 0 0 0 0 0 0 0 0 0 0 0 127 0" result="hardAlpha"/>
<feOffset dy="2"/>
<feGaussianBlur stdDeviation="2"/>
<feComposite in2="hardAlpha" operator="out"/>
<feColorMatrix type="matrix" values="0 0 0 0 1 0 0 0 0 0.588235 0 0 0 0 0.14902 0 0 0 0.24 0"/>
<feBlend mode="normal" in2="BackgroundImageFix" result="effect1_dropShadow_417_6307"/>
<feBlend mode="normal" in="SourceGraphic" in2="effect1_dropShadow_417_6307" result="shape"/>
</filter>
<clipPath id="clip0_417_6307">
<rect width="23" height="26" fill="white" transform="translate(7 5)"/>
</clipPath>
</defs>
</svg>
