<svg width="59" height="59" viewBox="0 0 59 59" fill="none" xmlns="http://www.w3.org/2000/svg">
<g filter="url(#filter0_d_2102_15051)">
<path fill-rule="evenodd" clip-rule="evenodd" d="M31.8788 3.41999C32.9789 3.38943 34.043 3.81346 34.8206 4.59226L45.8307 15.6199C46.5794 16.3698 47 17.3863 47 18.4461V23.57L47.94 23.5606C51.277 23.5272 54 26.2231 54 29.5603V32L54.1226 34.0843C54.3267 37.554 51.5491 40.4707 48.0736 40.4363L47 40.4257V46.3028C47 50.2449 43.7462 53.4096 39.8056 53.3001L29 53L18.1944 53.3001C14.2538 53.4096 11 50.2449 11 46.3028V40.0693L9.9406 40.0588C6.65023 40.0262 4 37.3496 4 34.0591V29.9403C4 26.65 6.64987 23.9735 9.94 23.9406L11 23.93V10.3996C11 6.38104 14.3759 3.1875 18.3883 3.41041L20 3.49995H29L31.8788 3.41999Z" fill="#107C42"/>
</g>
<g filter="url(#filter1_i_2102_15051)">
<path d="M32.9855 3.30615C34.0617 3.56085 34.8114 4.28444 35.5729 5.02893C39.0942 8.47448 42.6351 11.9004 46.176 15.3251C46.974 16.097 47.345 17.0257 47.3398 18.1267C47.3319 19.7581 47.3502 21.3894 47.3293 23.0208C47.3241 23.3956 47.4377 23.4975 47.7995 23.4792C48.9162 23.4231 50.016 23.5079 51.0465 24.003C52.606 24.7514 53.6588 25.9177 54.0389 27.6366C54.0532 27.7032 54.065 27.762 54.1368 27.7855C54.1368 30.5924 54.1368 33.3992 54.1368 36.2074C53.9866 36.2701 54.0075 36.4268 53.9762 36.5404C53.5491 38.0647 52.576 39.1226 51.1863 39.8266C50.2328 40.3099 49.2114 40.4536 48.1535 40.4301C47.3384 40.4118 47.3385 40.4262 47.3385 41.2595C47.3385 43.1181 47.3502 44.9754 47.3358 46.834C47.311 50.0693 45.2408 52.6162 42.097 53.3163C41.9651 53.3463 41.794 53.2771 41.7025 53.4417C33.248 53.4417 24.7948 53.4417 16.3402 53.4417C16.3063 53.3463 16.2214 53.3463 16.143 53.332C13.3819 52.8278 10.6586 50.3932 10.7918 46.4448C10.8532 44.6214 10.7905 42.7929 10.8114 40.9682C10.8167 40.5581 10.7383 40.3661 10.2811 40.417C9.91151 40.4575 9.53143 40.4288 9.15788 40.4144C7.00277 40.3256 5.0031 38.8849 4.27428 36.9166C4.18677 36.6802 4.20506 36.4007 4.00261 36.2087C4.00261 33.4018 4.00261 30.595 4.00261 27.7868C4.09143 27.745 4.08751 27.6601 4.10579 27.5817C4.36832 26.4467 4.95869 25.5168 5.856 24.7775C7.13469 23.7235 8.6289 23.3852 10.242 23.4805C10.6847 23.5066 10.814 23.3799 10.8127 22.9241C10.7944 18.6217 10.7958 14.3181 10.8049 10.0157C10.8075 6.74779 12.7824 4.24787 15.9497 3.45766C16.0803 3.42501 16.254 3.46942 16.3376 3.30615C21.8873 3.30615 27.4358 3.30615 32.9855 3.30615ZM29.0684 39.8371C35.4501 39.8371 41.8305 39.8371 48.2122 39.8384C48.6694 39.8384 49.1226 39.8227 49.5758 39.7417C51.7989 39.3408 53.4341 37.5657 53.4681 35.4146C53.5047 33.0975 53.4785 30.7804 53.4733 28.4621C53.4707 27.4942 53.1324 26.64 52.5238 25.8995C51.4527 24.5973 50.0395 24.0631 48.3833 24.0644C35.5063 24.067 22.6305 24.0657 9.75347 24.0657C9.60718 24.0657 9.45959 24.0657 9.3133 24.0709C6.73371 24.1571 4.69616 26.1019 4.66481 28.5613C4.63608 30.8288 4.65959 33.0988 4.65828 35.3662C4.65828 36.1538 4.85681 36.8879 5.28653 37.5448C6.33143 39.1435 7.85828 39.8358 9.72996 39.8371C16.1757 39.8384 22.6214 39.8358 29.0684 39.8371ZM29.0501 23.474C34.8101 23.474 40.5688 23.4727 46.3288 23.4766C46.6044 23.4766 46.8199 23.5079 46.8147 23.0939C46.7912 21.3319 46.7925 19.57 46.8108 17.808C46.8147 17.394 46.6697 17.2999 46.2753 17.3013C43.0779 17.3169 39.8792 17.3104 36.6818 17.3104C34.7566 17.3104 33.6725 16.2328 33.6712 14.322C33.6699 11.2226 33.6712 8.12183 33.6712 5.0224C33.6712 3.97358 33.5993 3.89652 32.5427 3.81162C32.4447 3.80379 32.3468 3.80509 32.2488 3.80509C27.3051 3.80509 22.3615 3.79595 17.4178 3.8077C13.9892 3.81554 11.3391 6.47481 11.3339 9.89032C11.3273 14.2462 11.3404 18.6022 11.3195 22.9594C11.3169 23.4165 11.4619 23.4831 11.8694 23.4818C17.5967 23.4701 23.3228 23.474 29.0501 23.474ZM29.0671 40.4262C23.3241 40.4262 17.5811 40.4301 11.838 40.417C11.4371 40.4157 11.3169 40.5124 11.3208 40.9238C11.343 42.9143 11.326 44.9049 11.3313 46.8954C11.3404 50.2443 13.937 52.9231 17.295 52.9349C25.1422 52.9649 32.9894 52.9649 40.8379 52.9349C44.1959 52.9218 46.7899 50.2456 46.8016 46.8941C46.8082 44.9205 46.7873 42.9457 46.8147 40.9721C46.8212 40.5137 46.6828 40.4157 46.2465 40.417C40.5205 40.4314 34.7944 40.4262 29.0671 40.4262ZM34.2589 10.1385C34.2589 11.6066 34.2524 13.0746 34.2602 14.544C34.2681 15.8084 35.1549 16.7135 36.414 16.7174C39.3345 16.7279 42.255 16.72 45.1755 16.7226C45.4341 16.7226 45.6771 16.6991 45.7868 16.4248C45.8978 16.1453 45.7162 15.9677 45.5373 15.7901C45.0749 15.3303 44.6165 14.864 44.1567 14.4017C41.2349 11.4629 38.3144 8.52281 35.3874 5.59056C35.1458 5.34893 34.9211 4.93358 34.511 5.1073C34.0931 5.28493 34.2694 5.73946 34.2655 6.07644C34.2498 7.42958 34.2589 8.78403 34.2589 10.1385Z" fill="#FDFBFC"/>
</g>
<path d="M29.1063 30.5924C29.391 29.7303 29.698 28.8748 29.9527 28.0036C30.0676 27.6131 30.2374 27.4237 30.6619 27.4851C30.8983 27.5191 31.1425 27.4916 31.4377 27.4916C31.0028 28.7782 30.5966 30.0125 30.1629 31.2376C30.0258 31.6255 30.0114 31.9756 30.1538 32.3687C30.5809 33.5481 30.9584 34.7445 31.392 35.9214C31.5527 36.3563 31.4456 36.4255 31.0224 36.4138C30.0585 36.3876 30.0598 36.4072 29.7554 35.4721C29.489 34.6518 29.2199 33.8329 28.9169 32.9029C28.5629 33.97 28.2442 34.9392 27.9177 35.9044C27.8589 36.0794 27.8798 36.3537 27.6578 36.3824C27.3051 36.4268 26.9355 36.4308 26.5881 36.3694C26.4052 36.3367 26.545 36.1212 26.5868 35.9984C27.0034 34.7641 27.4175 33.5285 27.855 32.3008C27.9713 31.9756 27.9791 31.6895 27.8616 31.3617C27.4527 30.211 27.0818 29.0459 26.6743 27.8952C26.5541 27.557 26.6364 27.4838 26.9786 27.4838C27.9909 27.4825 27.9909 27.4708 28.2978 28.4216C28.5329 29.1491 28.768 29.8753 29.0031 30.6015C29.0358 30.5989 29.071 30.5963 29.1063 30.5924Z" fill="#FDFBFC"/>
<path d="M22.0689 31.8971C22.0689 30.5767 22.0833 29.2562 22.0597 27.9357C22.0532 27.5582 22.1721 27.4733 22.5286 27.4825C23.5226 27.5073 24.5179 27.5047 25.5118 27.4825C25.8449 27.4746 25.9193 27.5909 25.918 27.9004C25.9154 28.7651 25.9285 28.7651 25.086 28.7651C24.6459 28.7651 24.2057 28.7729 23.7655 28.7625C23.5566 28.7572 23.4769 28.8251 23.4808 29.0407C23.4913 29.6767 23.4939 30.3128 23.4795 30.9476C23.4743 31.2036 23.5997 31.2415 23.81 31.2363C24.2175 31.2271 24.625 31.2441 25.0325 31.231C25.2898 31.2219 25.41 31.2885 25.423 31.5798C25.4661 32.5319 25.4779 32.5306 24.5179 32.5306C23.4847 32.5306 23.4847 32.5306 23.4847 33.5834C23.4847 33.9909 23.4991 34.3997 23.4795 34.8059C23.4664 35.0723 23.5709 35.1376 23.8191 35.1324C24.4055 35.118 24.9933 35.1376 25.5797 35.1233C25.8331 35.1167 25.9102 35.2029 25.9193 35.4576C25.9546 36.4033 25.9651 36.4033 25.0207 36.4033C24.1731 36.4033 23.3254 36.3889 22.4777 36.4111C22.1577 36.4189 22.0597 36.3275 22.0637 36.0049C22.078 34.6361 22.0702 33.2673 22.0689 31.8971Z" fill="#FDFBFC"/>
<path d="M34.144 27.4916C34.6821 27.4916 35.2202 27.5007 35.7571 27.4877C35.9896 27.4824 36.0575 27.5621 36.0718 27.7933C36.128 28.7664 36.1371 28.7664 35.1562 28.7664C34.7487 28.7664 34.3412 28.7742 33.9337 28.7637C33.7234 28.7585 33.6451 28.8343 33.6477 29.0459C33.6568 29.6819 33.6555 30.3167 33.6477 30.9528C33.6451 31.1631 33.726 31.2428 33.935 31.2388C34.3582 31.2297 34.7827 31.2506 35.2059 31.2323C35.4867 31.2193 35.5638 31.3277 35.5716 31.598C35.6016 32.5345 35.6108 32.5345 34.6612 32.5345C33.6503 32.5345 33.6503 32.5345 33.6503 33.5664C33.6503 33.9255 33.6803 34.2873 33.6425 34.6413C33.5967 35.0697 33.7718 35.1637 34.1636 35.1389C34.6834 35.1063 35.2072 35.1415 35.7283 35.1259C35.9778 35.118 36.0614 35.1938 36.0731 35.4524C36.1123 36.4059 36.1228 36.4059 35.1863 36.4059C34.3386 36.4059 33.4909 36.3954 32.6433 36.4124C32.3416 36.4189 32.2149 36.3575 32.2162 36.0153C32.2292 33.309 32.2279 30.6041 32.2175 27.8978C32.2162 27.5804 32.3011 27.4681 32.6289 27.485C33.1331 27.5112 33.6398 27.4916 34.144 27.4916Z" fill="#FDFBFC"/>
<path d="M22.7533 14.1561C20.4376 14.1561 18.1205 14.1574 15.8047 14.1548C15.6271 14.1548 15.4429 14.1535 15.2731 14.1091C15.008 14.0398 14.8643 13.8452 14.8735 13.5657C14.8826 13.3084 15.0237 13.1295 15.2692 13.0681C15.4403 13.025 15.6232 13.0211 15.8008 13.0211C20.4336 13.0184 25.0651 13.0197 29.698 13.0197C29.7633 13.0197 29.8286 13.0184 29.8939 13.0197C30.3811 13.0341 30.6606 13.2483 30.6279 13.6088C30.5887 14.0477 30.2779 14.1548 29.8978 14.1548C27.5167 14.1561 25.1357 14.1561 22.7533 14.1561Z" fill="#FDFBFC"/>
<path d="M21.3806 11.0476C23.2731 11.0476 25.1657 11.0476 27.0583 11.0489C27.2046 11.0489 27.3574 11.0358 27.4958 11.0724C27.7557 11.1416 27.9151 11.3179 27.9164 11.6027C27.9164 11.8822 27.7871 12.0781 27.5076 12.1317C27.3169 12.1682 27.1197 12.1761 26.9251 12.1761C23.2549 12.1787 19.5833 12.1787 15.9131 12.1761C15.7185 12.1761 15.52 12.1695 15.3293 12.1369C15.0315 12.0859 14.8695 11.8874 14.8761 11.5883C14.8826 11.284 15.0785 11.1168 15.362 11.0606C15.4886 11.0358 15.6219 11.0476 15.7525 11.0476C17.6281 11.0476 19.505 11.0476 21.3806 11.0476Z" fill="#FDFBFC"/>
<path d="M19.9099 8.89377C21.344 8.89377 22.7768 8.89116 24.2109 8.89508C24.6981 8.89639 24.9737 9.11581 24.9502 9.47369C24.9319 9.74928 24.7817 9.93345 24.5061 9.98047C24.3154 10.0131 24.1182 10.0223 23.9236 10.0223C21.2513 10.0249 18.5789 10.0249 15.9079 10.0236C15.746 10.0236 15.5814 10.0197 15.4207 10.0014C15.0838 9.96479 14.8656 9.78194 14.8787 9.4319C14.8931 9.08316 15.1295 8.90814 15.4625 8.9003C16.0163 8.88594 16.5701 8.89508 17.1239 8.89508C18.0513 8.89377 18.9799 8.89377 19.9099 8.89377Z" fill="#FDFBFC"/>
<defs>
<filter id="filter0_d_2102_15051" x="0" y="0.399414" width="58.1332" height="57.9034" filterUnits="userSpaceOnUse" color-interpolation-filters="sRGB">
<feFlood flood-opacity="0" result="BackgroundImageFix"/>
<feColorMatrix in="SourceAlpha" type="matrix" values="0 0 0 0 0 0 0 0 0 0 0 0 0 0 0 0 0 0 127 0" result="hardAlpha"/>
<feOffset dy="1"/>
<feGaussianBlur stdDeviation="2"/>
<feComposite in2="hardAlpha" operator="out"/>
<feColorMatrix type="matrix" values="0 0 0 0 0.0627451 0 0 0 0 0.486275 0 0 0 0 0.258824 0 0 0 0.24 0"/>
<feBlend mode="normal" in2="BackgroundImageFix" result="effect1_dropShadow_2102_15051"/>
<feBlend mode="normal" in="SourceGraphic" in2="effect1_dropShadow_2102_15051" result="shape"/>
</filter>
<filter id="filter1_i_2102_15051" x="4.00261" y="3.30615" width="51.1342" height="54.1355" filterUnits="userSpaceOnUse" color-interpolation-filters="sRGB">
<feFlood flood-opacity="0" result="BackgroundImageFix"/>
<feBlend mode="normal" in="SourceGraphic" in2="BackgroundImageFix" result="shape"/>
<feColorMatrix in="SourceAlpha" type="matrix" values="0 0 0 0 0 0 0 0 0 0 0 0 0 0 0 0 0 0 127 0" result="hardAlpha"/>
<feOffset dx="1" dy="4"/>
<feGaussianBlur stdDeviation="2"/>
<feComposite in2="hardAlpha" operator="arithmetic" k2="-1" k3="1"/>
<feColorMatrix type="matrix" values="0 0 0 0 1 0 0 0 0 1 0 0 0 0 1 0 0 0 0.25 0"/>
<feBlend mode="normal" in2="shape" result="effect1_innerShadow_2102_15051"/>
</filter>
</defs>
</svg>
