<svg width="36" height="36" viewBox="0 0 36 36" fill="none" xmlns="http://www.w3.org/2000/svg">
<g filter="url(#filter0_d_300_3186)">
<g clip-path="url(#clip0_300_3186)">
<path d="M8.04541 18.8136C8.04541 15.9909 8.04541 13.0636 8.04541 10.2409C8.04541 9.09086 8.77723 8.2545 9.82268 8.04541C10.0318 8.04541 10.1363 8.04541 10.2409 8.04541C14.6318 8.04541 19.1272 8.04541 23.5181 8.04541C24.1454 8.04541 24.6681 8.2545 25.0863 8.56814C25.9227 9.29996 26.6545 10.1363 27.4909 10.9727C27.909 11.3909 28.0136 11.809 28.0136 12.4363C28.0136 17.4545 28.0136 22.4727 28.0136 27.4909C28.0136 28.6409 27.0727 29.5818 25.9227 29.6863C25.8181 29.6863 25.7136 29.6863 25.7136 29.6863C20.5909 29.6863 15.4681 29.6863 10.3454 29.6863C9.82268 29.6863 9.29996 29.5818 8.88177 29.2681C8.2545 28.85 8.04541 28.2227 8.04541 27.4909C8.04541 24.5636 8.04541 21.6363 8.04541 18.8136ZM24.1454 28.4318C24.7727 28.4318 25.2954 28.4318 25.8181 28.4318C26.4454 28.4318 26.8636 28.0136 26.8636 27.3863C26.8636 22.3681 26.8636 17.4545 26.8636 12.4363C26.8636 12.1227 26.759 11.9136 26.55 11.7045C25.8181 10.9727 25.0863 10.1363 24.25 9.4045C23.9363 9.09086 23.6227 9.09086 23.309 9.19541C23.309 10.7636 23.309 12.3318 23.309 14.0045C23.309 14.9454 22.6818 15.4681 21.8454 15.4681C19.3363 15.4681 16.7227 15.4681 14.2136 15.4681C13.2727 15.4681 12.75 14.9454 12.75 14.0045C12.75 12.5409 12.75 10.9727 12.75 9.50905C12.75 9.4045 12.75 9.29996 12.75 9.19541C11.9136 9.19541 11.1818 9.19541 10.3454 9.19541C9.61359 9.19541 9.19541 9.61359 9.19541 10.3454C9.19541 14.4227 9.19541 18.3954 9.19541 22.4727C9.19541 24.1454 9.19541 25.8181 9.19541 27.3863C9.19541 28.0136 9.61359 28.4318 10.2409 28.4318C10.659 28.4318 10.9727 28.4318 11.3909 28.4318C11.6 28.4318 11.809 28.4318 12.0181 28.4318C12.0181 28.3272 12.0181 28.2227 12.0181 28.1181C12.0181 25.609 12.0181 23.1 12.0181 20.5909C12.0181 19.65 12.5409 19.1272 13.4818 19.1272C16.5136 19.1272 19.5454 19.1272 22.5772 19.1272C23.5181 19.1272 24.0409 19.65 24.0409 20.5909C24.0409 23.1 24.0409 25.609 24.0409 28.1181C24.1454 28.2227 24.1454 28.3272 24.1454 28.4318ZM22.8909 28.4318C22.8909 28.3272 22.8909 28.3272 22.8909 28.3272C22.8909 25.7136 22.8909 23.1 22.8909 20.5909C22.8909 20.2772 22.8909 20.2772 22.5772 20.2772C19.5454 20.2772 16.5136 20.2772 13.4818 20.2772C13.1681 20.2772 13.1681 20.2772 13.1681 20.6954C13.1681 23.2045 13.1681 25.8181 13.1681 28.3272C13.1681 28.4318 13.1681 28.4318 13.1681 28.5363C16.409 28.4318 19.65 28.4318 22.8909 28.4318ZM13.9 9.19541C13.9 9.29996 13.9 9.29996 13.9 9.4045C13.9 10.8681 13.9 12.4363 13.9 13.9C13.9 14.3181 14.0045 14.3181 14.3181 14.3181C16.8272 14.3181 19.3363 14.3181 21.8454 14.3181C22.159 14.3181 22.159 14.3181 22.159 14.0045C22.159 12.5409 22.159 10.9727 22.159 9.50905C22.159 9.4045 22.159 9.4045 22.159 9.29996C19.4409 9.19541 16.7227 9.19541 13.9 9.19541Z" fill="#FF9626" stroke="#FF9626" stroke-width="0.2"/>
<path d="M18.0816 23.7271C17.3498 23.7271 16.618 23.7271 15.7816 23.7271C15.3634 23.7271 15.0498 23.5181 15.0498 23.0999C15.0498 22.7862 15.3634 22.5771 15.7816 22.5771C17.2453 22.5771 18.8134 22.5771 20.2771 22.5771C20.6953 22.5771 20.9043 22.7862 21.0089 23.2044C21.0089 23.5181 20.6953 23.8317 20.2771 23.8317C19.5453 23.7271 18.8134 23.7271 18.0816 23.7271Z" fill="#FF9626"/>
<path d="M18.0816 26.1317C17.3498 26.1317 16.618 26.1317 15.7816 26.1317C15.3634 26.1317 15.0498 25.9227 15.0498 25.5045C15.0498 25.1908 15.3634 24.9817 15.7816 24.8772C17.2453 24.8772 18.8134 24.8772 20.2771 24.8772C20.6953 24.8772 20.9043 25.0863 21.0089 25.5045C21.0089 25.8181 20.6953 26.1317 20.2771 26.1317C19.5453 26.1317 18.8134 26.1317 18.0816 26.1317Z" fill="#FF9626"/>
</g>
</g>
<defs>
<filter id="filter0_d_300_3186" x="-4" y="-2" width="44" height="44" filterUnits="userSpaceOnUse" color-interpolation-filters="sRGB">
<feFlood flood-opacity="0" result="BackgroundImageFix"/>
<feColorMatrix in="SourceAlpha" type="matrix" values="0 0 0 0 0 0 0 0 0 0 0 0 0 0 0 0 0 0 127 0" result="hardAlpha"/>
<feOffset dy="2"/>
<feGaussianBlur stdDeviation="2"/>
<feComposite in2="hardAlpha" operator="out"/>
<feColorMatrix type="matrix" values="0 0 0 0 1 0 0 0 0 0.588235 0 0 0 0 0.14902 0 0 0 0.24 0"/>
<feBlend mode="normal" in2="BackgroundImageFix" result="effect1_dropShadow_300_3186"/>
<feBlend mode="normal" in="SourceGraphic" in2="effect1_dropShadow_300_3186" result="shape"/>
</filter>
<clipPath id="clip0_300_3186">
<rect width="21.9545" height="23" fill="white" transform="translate(7 7)"/>
</clipPath>
</defs>
</svg>
